PathFileType	4	(X/Y/Z)	/Users/mathieubourgeois/Desktop/Analyse/Traitement/Sujet_03/Data/Transformed_Sujet_03_velo_80.trc
DataRate	CameraRate	NumFrames	NumMarkers	Units	OrigDataRate	OrigDataStartFrame	OrigNumFrames
120.000000	120.000000	4	36	mm	120.000000	934	1868
Frame#	Time	RFHD			LFHD			RBHD			LBHD			C7			CLAV			RSHO			LSHO			STRN			T10			RBWT			LBWT			RFWT			LFWT			RKNI			LKNI			RKNE			LKNE			LANI			RANI			LANE			RANE			LTOE			RTOE			LHEE			RHEE			RHUM			LHUM			RRAD			LRAD			RWRA			RWRB			LWRA			LWRB			LCAR			RCAR			
		X1	Y1	Z1	X2	Y2	Z2	X3	Y3	Z3	X4	Y4	Z4	X5	Y5	Z5	X6	Y6	Z6	X7	Y7	Z7	X8	Y8	Z8	X9	Y9	Z9	X10	Y10	Z10	X11	Y11	Z11	X12	Y12	Z12	X13	Y13	Z13	X14	Y14	Z14	X15	Y15	Z15	X16	Y16	Z16	X17	Y17	Z17	X18	Y18	Z18	X19	Y19	Z19	X20	Y20	Z20	X21	Y21	Z21	X22	Y22	Z22	X23	Y23	Z23	X24	Y24	Z24	X25	Y25	Z25	X26	Y26	Z26	X27	Y27	Z27	X28	Y28	Z28	X29	Y29	Z29	X30	Y30	Z30	X31	Y31	Z31	X32	Y32	Z32	X33	Y33	Z33	X34	Y34	Z34	X35	Y35	Z35	X36	Y36	Z36	

935	7.783333333333333	143.9782867431641	1563.378662109375	109.7558364868163	129.3299865722656	1562.4169921875	-42.82273101806648	32.29712295532225	1633.987060546875	123.5518188476562	9.176169395446781	1649.054321289062	-23.50346946716319	-112.8831024169922	1553.049194335938	45.09115982055653	-75.82662200927734	1397.928955078125	40.45624923706045	-50.01501464843753	1482.90771484375	213.0185546874999	-79.5313262939453	1504.450805664062	-140.7308807373048	-178.7837066650391	1262.096435546875	38.55287933349599	-330.0430297851562	1455.526611328125	38.20415115356432	-528.6226806640625	1263.747802734375	107.708656311035	-529.2482299804688	1257.82275390625	-15.05320072174086	-378.0540466308594	1200.676025390625	172.0919799804686	-379.1505126953125	1180.442138671875	-72.76479339599621	-91.63562774658205	830.6203002929688	136.9167022705078	-131.8871307373047	715.0549926757812	-34.2944068908692	-91.90273284912112	868.40185546875	249.6137542724609	-138.6240997314453	767.0111083984375	-142.9327545166016	-185.5628967285156	340.6829833984375	-61.09717559814457	-366.0242919921875	585.7172241210938	121.2322463989257	-196.7700653076172	319.2074890136719	-149.4212493896485	-394.9624633789062	579.3193969726562	207.7043304443359	-5.932559013366688	236.9544372558594	-97.8809280395508	-279.7064819335938	401.2236022949219	151.9264984130859	-266.5527648925781	295.3825378417969	-109.9132232666016	-469.097412109375	598.4632568359375	162.419204711914	27.61257171630857	1187.181640625	235.1942596435546	12.57182312011721	1196.746826171875	-146.1800231933595	80.53454589843746	1213.06591796875	291.1952819824218	61.63127517700197	1231.184326171875	-201.8257293701173	283.5576477050781	1041.517578125	214.6912231445312	270.8437805175781	1031.014404296875	295.8560791015625	250.4791717529297	1058.83837890625	-127.8589019775391	229.983139038086	1047.480590820312	-205.0855865478516	328.5747680664062	1034.430541992188	-222.4822235107422	373.5165405273437	1033.007690429688	300.0482177734375	
936	7.791666666666667	144.2577056884766	1563.528930664062	110.4423904418944	129.6079711914062	1562.589721679688	-42.18283081054695	32.61232376098631	1634.174438476562	124.2156524658202	9.511568069458011	1649.265747070312	-22.82149696350108	-112.6181106567383	1553.220336914062	45.81233978271474	-75.50334167480469	1398.057495117188	41.1714210510253	-49.76401138305667	1483.091186523438	213.6642913818359	-79.16984558105467	1504.781372070312	-139.9799041748048	-178.3529052734375	1262.204467773438	39.0958251953124	-329.6813659667969	1455.504150390625	38.54196929931627	-528.2155151367188	1263.75927734375	107.4975967407225	-528.79443359375	1257.752685546875	-15.23136520385756	-377.6055908203125	1200.961791992188	172.0362701416014	-378.8419799804688	1180.020385742188	-72.74420928955089	-85.29891967773439	840.6587524414062	137.3330078124999	-140.9745635986328	706.4803466796875	-34.33482360839849	-86.01658630371097	877.8018188476562	250.4138183593749	-147.3832397460937	758.7402954101562	-142.7827758789063	-193.0463256835938	331.9819030761719	-61.56082153320317	-359.1702270507812	595.3325805664062	121.7711334228515	-204.4271087646484	310.5641479492188	-149.9037322998047	-388.4115295410156	588.8218994140625	208.2292938232421	-14.16956329345702	226.364013671875	-98.08936309814455	-268.5592956542969	415.6344909667969	152.5617980957031	-274.214111328125	287.369873046875	-110.4759368896485	-462.9789123535156	607.621337890625	163.0431671142577	27.81193351745603	1187.304443359375	235.4025115966796	12.95177459716799	1197.049926757812	-145.6050109863282	80.75912475585933	1213.090942382812	291.4602966308593	62.08605575561526	1231.592895507812	-201.2315826416016	283.6492309570312	1041.54443359375	214.5542449951172	270.9766235351562	1030.975952148438	295.7249450683594	250.6580352783203	1058.701416015625	-127.8850250244141	230.7320861816407	1047.840576171875	-206.2081756591797	328.6331787109375	1034.392333984375	-222.6017761230469	373.6237487792968	1032.993774414062	299.873291015625	
937	7.8	144.5741577148438	1563.734619140625	111.0689315795898	129.9811706542969	1562.792358398438	-41.54239273071297	32.9705123901367	1634.400634765625	124.839630126953	9.855940818786625	1649.503784179688	-22.20723915100108	-112.2765731811523	1553.41796875	46.46726608276357	-75.11589050292969	1398.211791992188	41.80303573608389	-49.50795364379886	1483.267333984375	214.2223968505859	-78.81144714355467	1505.119384765625	-139.1934356689454	-177.9962463378906	1262.28369140625	39.77657699584951	-329.3209228515625	1455.447875976562	38.83053588867174	-527.7470092773438	1263.740844726562	107.3573837280272	-528.3560180664062	1257.7236328125	-15.33705902099623	-377.1121520996094	1201.242309570312	172.1009368896483	-378.5244445800781	1179.606323242188	-72.73349761962902	-79.52565765380861	848.7821655273438	137.0658569335937	-149.9853363037109	698.581298828125	-34.56360244750983	-80.3301696777344	887.079345703125	251.1427917480468	-156.0757293701172	751.1527709960938	-142.7271575927735	-201.66162109375	324.5281677246094	-61.84716415405278	-352.4713439941406	604.7909545898438	122.2485275268554	-212.880386352539	302.6757507324219	-150.3703918457032	-381.3491821289062	597.2874755859375	208.8154144287109	-23.2061309814453	216.41357421875	-98.3555145263672	-259.7508544921875	425.6673889160156	151.6274719238281	-282.5977478027344	280.2552490234375	-110.7281265258789	-456.5601196289062	615.721923828125	163.4234619140624	27.96893882751462	1187.439575195312	235.623809814453	13.31899642944338	1197.434936523438	-144.9775695800782	80.91522979736324	1213.1357421875	291.7109985351562	62.43935775756838	1231.958740234375	-200.6049804687501	283.7475280761719	1041.588989257812	214.425064086914	271.0926513671874	1030.95361328125	295.6216125488281	250.7876892089844	1058.611206054688	-127.8906860351563	230.8363342285157	1047.972412109375	-206.3653717041016	328.66015625	1034.364013671875	-222.7117156982422	373.7124328613281	1033.00048828125	299.719970703125	
938	7.808333333333334	144.9653930664062	1563.93994140625	111.6644897460937	130.2995758056641	1563.034301757812	-40.95887756347664	33.33710861206053	1634.653686523438	125.4443435668944	10.23151397705078	1649.771362304688	-21.58380699157725	-111.9808349609375	1553.597290039062	47.12100601196278	-74.73245239257812	1398.417846679688	42.43193817138663	-49.16088867187503	1483.48291015625	214.8160095214843	-78.34774017333983	1505.54052734375	-138.4080963134766	-177.504638671875	1262.428588867188	40.25759887695303	-328.8939208984375	1455.396240234375	39.07813644409166	-527.2365112304688	1263.75244140625	107.3770751953124	-527.9293212890625	1257.7373046875	-15.38131809234633	-376.5845336914062	1201.574462890625	172.0751800537108	-378.3158874511719	1179.218994140625	-72.69503021240246	-71.8483123779297	859.100341796875	137.3401336669921	-158.9967041015625	691.4720458984375	-34.85776901245124	-74.9690856933594	896.1979370117188	251.7672882080078	-164.6296234130859	744.377197265625	-142.7760314941407	-210.3766326904297	317.5250244140625	-62.25354385375982	-345.4421997070312	613.4926147460938	122.6262283325194	-222.0621337890625	295.6616821289062	-150.7511291503907	-374.8508911132812	606.2300415039062	209.707550048828	-32.95582199096678	207.4344482421875	-98.53104400634767	-250.7613983154297	435.8637084960938	152.0571899414062	-291.6826477050781	273.9314575195312	-110.8186721801758	-449.657470703125	622.7499389648438	163.7420349121093	28.11615562438962	1187.583129882812	235.7972564697265	13.65169715881349	1197.783081054688	-144.3857879638673	81.06449890136714	1213.174926757812	291.9879455566406	62.82826995849612	1232.294067382812	-200.0534057617188	283.7919006347656	1041.624389648438	214.3585968017578	271.1860656738281	1030.93505859375	295.5437927246094	250.9026336669922	1058.525634765625	-127.8806076049805	230.923583984375	1048.093627929688	-206.4774780273438	328.6835327148438	1034.349975585938	-222.8067169189453	373.7649230957031	1033.009521484375	299.6077575683594	
